<svg version="1.0" xmlns="http://www.w3.org/2000/svg"
 width="192.000000pt" height="192.000000pt" viewBox="0 0 192.000000 192.000000"
 preserveAspectRatio="xMidYMid meet">
<metadata>
Created by potrace 1.15, written by Peter Selinger 2001-2017
</metadata>
<g transform="translate(0.000000,192.000000) scale(0.100000,-0.100000)"
fill="#ffffff" stroke="none">
<path d="M940 1903 c-38 -13 -104 -74 -414 -382 -421 -418 -426 -425 -426
-561 0 -136 5 -143 426 -561 412 -409 399 -399 539 -399 109 0 162 31 313 182
l122 123 -110 110 -110 109 244 246 c272 274 276 280 276 415 0 122 -20 151
-307 437 -286 285 -306 298 -433 297 -41 0 -95 -8 -120 -16z m335 -513 l210
-210 -218 -218 -217 -217 110 -110 110 -110 -105 -105 -105 -105 -322 323
-323 322 320 320 c176 176 322 320 325 320 3 0 100 -95 215 -210z"/>
</g>
</svg>